<svg xmlns="http://www.w3.org/2000/svg" width="3000" height="3000" fill="none" viewBox="0 0 3000 3000" id="business-analytics">
  <path fill="#E7E8FF" d="M2332.68 822.111C2211.36 839.971 1952.09 647.974 1837.61 549.742 1788.55 397.93 2279.15 594.393 2408.5 665.834 2537.84 737.275 2484.32 799.786 2332.68 822.111ZM118.743 1844.9C66.7242 1986 102.849 2157.78 163.553 2307.24 241.576 2499.34 445.141 2594.74 652.279 2594.74H2018.2C2339.78 2594.74 2638.28 2215.39 2806.05 1940.72 3001.98 1619.95 2872.75 1290.86 2739.36 1095.07 2605.96 899.276 2289.15 1070.07 1993.18 899.276 1697.21 728.48 1751.4 640.999 1501.29 532.69 1174.49 391.173 464.735 384.535 464.735 1140.89 464.735 1458.17 235.463 1528.31 118.743 1844.9Z"></path>
  <path fill="#fff" d="M901.912 2594.74H1282.39C1488.75 2520.4 1695.11 2177.8 1504.87 2213.35C1314.64 2248.9 1127.62 2232.74 1375.9 2109.92C1624.18 1987.11 1488.75 1893.37 1375.9 1903.07C1263.04 1912.77 1282.39 1835.2 1327.53 1686.52C1372.67 1537.84 1327.53 1402.1 1201.78 1402.1C1076.03 1402.1 1175.99 1770.55 1076.03 1796.41C976.074 1822.27 1024.44 1650.97 901.912 1686.52C779.385 1722.07 979.298 2145.48 901.912 2109.92C824.526 2074.37 834.2 1903.07 695.551 2032.35C584.631 2135.78 786.909 2450.37 901.912 2594.74Z"></path>
  <path fill="#fff" d="M334.059 458.663C334.059 434.085 353.983 414.161 378.56 414.161H1548C1572.58 414.161 1592.5 434.085 1592.5 458.663V1849.44C1592.5 1874.02 1572.58 1893.94 1548 1893.94H378.56C353.983 1893.94 334.059 1874.02 334.059 1849.44V458.663Z"></path>
  <path fill="#032068" fill-rule="evenodd" d="M325.158 458.663C325.158 429.17 349.067 405.261 378.56 405.261H1548C1577.49 405.261 1601.4 429.17 1601.4 458.663V1849.44C1601.4 1878.93 1577.49 1902.84 1548 1902.84H378.56C349.067 1902.84 325.158 1878.93 325.158 1849.44V458.663ZM378.56 423.062C358.898 423.062 342.959 439.001 342.959 458.663V1849.44C342.959 1869.1 358.898 1885.04 378.56 1885.04H1548C1567.66 1885.04 1583.6 1869.1 1583.6 1849.44V458.663C1583.6 439.001 1567.66 423.062 1548 423.062H378.56Z" clip-rule="evenodd"></path>
  <path fill="#032068" d="M334.059 458.663C334.059 434.085 353.983 414.161 378.56 414.161H1548C1572.58 414.161 1592.5 434.085 1592.5 458.663V622.848H334.059V458.663Z"></path>
  <path fill="#E7E8FF" fill-rule="evenodd" d="M622.378 1400.91C622.378 1371.42 646.287 1347.51 675.78 1347.51H751.197C780.69 1347.51 804.599 1371.42 804.599 1400.91V1706.8H622.378V1400.91ZM675.78 1365.31C656.118 1365.31 640.179 1381.25 640.179 1400.91V1689H786.798V1400.91C786.798 1381.25 770.859 1365.31 751.197 1365.31H675.78Z" clip-rule="evenodd"></path>
  <path fill="#E7E8FF" d="M915.852 1223.85C915.852 1199.27 935.776 1179.35 960.354 1179.35H1035.77C1060.35 1179.35 1080.27 1199.27 1080.27 1223.85V1697.9H915.852V1223.85Z"></path>
  <path fill="#F4AD5E" d="M1200.42 1021.48C1200.42 996.907 1220.35 976.983 1244.93 976.983H1320.34C1344.92 976.983 1364.84 996.907 1364.84 1021.48V1697.9H1200.42V1021.48Z"></path>
  <path fill="#F4AD5E" fill-rule="evenodd" d="M502.226 1656.56V976.983H520.026V1656.56C520.026 1676.22 535.965 1692.16 555.627 1692.16H1412.27V1709.96H555.627C526.134 1709.96 502.226 1686.05 502.226 1656.56ZM909.528 802.492H514.288V784.691H909.528V802.492Z" clip-rule="evenodd"></path>
  <path fill="#fff" d="M535.449 514.856C535.449 539.035 515.847 558.637 491.668 558.637 467.489 558.637 447.888 539.035 447.888 514.856 447.888 490.677 467.489 471.076 491.668 471.076 515.847 471.076 535.449 490.677 535.449 514.856ZM681.383 514.856C681.383 539.035 661.782 558.637 637.603 558.637 613.423 558.637 593.822 539.035 593.822 514.856 593.822 490.677 613.423 471.076 637.603 471.076 661.782 471.076 681.383 490.677 681.383 514.856ZM827.317 514.856C827.317 539.035 807.716 558.637 783.536 558.637 759.357 558.637 739.756 539.035 739.756 514.856 739.756 490.677 759.357 471.076 783.536 471.076 807.716 471.076 827.317 490.677 827.317 514.856Z"></path>
  <path fill="#032068" d="M2668.83 2594.74L2640.85 2328.56L1662.26 2322.15L1653.59 2594.74H2668.83Z"></path>
  <path fill="#EFCB96" d="M2207.03 1051.39L2224.38 1142.25L2207.03 1237.44C2162.2 1243.21 2070.8 1254.75 2063.85 1254.75C2056.91 1254.75 2006.01 1211.48 1981.42 1189.84L2007.45 1051.39C1934.56 1027.16 1910.56 920.139 1907.66 869.66C1890.31 661.973 2029.15 636.012 2055.18 636.012C2081.21 636.012 2246.08 636.012 2267.77 809.084C2285.12 947.542 2234.51 1028.31 2207.03 1051.39Z"></path>
  <path fill="#032068" d="M2159.3 964.849C2176.66 1065.23 2201.24 1075.9 2211.37 1068.69C2332.85 990.81 2329.92 741.976 2254.75 657.646C2185.34 579.763 2133.27 610.051 1990.1 575.437C1846.92 540.822 1799.2 601.397 1825.23 679.28C1862.7 791.394 1981.42 731.202 2011.79 744.182C2042.16 757.163 2081.21 791.777 2098.56 861.006C2115.92 930.235 2124.6 917.254 2137.61 878.313C2150.63 839.372 2185.34 783.123 2211.37 852.352C2232.19 907.735 2185.34 950.426 2159.3 964.849Z"></path>
  <path fill="#F4AD5E" fill-rule="evenodd" d="M1679.61 2382.72C1714.32 2410.42 1944.27 2430.32 2195.91 2430.32C2447.55 2430.32 2664.48 2382.72 2668.82 2330.8C2669.6 2321.5 2667.31 2279.3 2662.59 2215.98C2732.97 2224.43 2797.1 2214.09 2842.37 2179.37C2955.17 2092.83 2907.45 1811.59 2785.96 1504.39C2701.66 1291.18 2576.42 1186.31 2503.17 1149.08C2461.69 1122.44 2293.93 1086.09 2243.64 1080.36C2236.4 1113.53 2200.25 1179.87 2113.48 1179.87C2026.7 1179.87 1987.66 1113.53 1978.98 1080.36C1902.64 1091.23 1838.48 1117.3 1796.71 1138.19L1796.76 1136.61C1790.01 1140.28 1783.07 1144.45 1775.97 1149.08C1775.66 1149.25 1775.36 1149.42 1775.06 1149.58C1767.08 1154.01 1760.18 1158.25 1753.89 1164.57C1611.8 1270.84 1421.02 1533.8 1389.61 1690.44C1346.22 1906.78 1597.86 2196.67 1628.23 2213.98C1630.65 2215.36 1633.61 2215.84 1637.01 2215.53C1636.46 2259.36 1636.23 2298.49 1636.23 2330.8C1636.23 2336.57 1644.9 2355.03 1679.61 2382.72Z" clip-rule="evenodd"></path>
  <path fill="#032068" d="M2100.47 1050.07C2058.81 1063.91 2019.48 1055.84 2005.02 1050.07L1996.34 1106.32C2051.87 1099.39 2088.9 1065.93 2100.47 1050.07Z"></path>
  <path fill="#EFCB96" d="M1941.13 1505.33L2057.08 1586.59C2075.49 1602.47 2127.71 1634.87 2161.77 1656.89C2147.37 1670.15 2110.87 1718.01 2080 1803.37C2047.42 1783.72 1991.86 1767.82 1968.45 1730.54C1947.2 1696.69 1977.24 1635.02 1996.34 1621.21L1907.55 1549.77C1895.7 1540.23 1893.7 1522.98 1903.05 1511C1912.2 1499.29 1928.95 1496.79 1941.13 1505.33Z"></path>
  <path fill="#032068" d="M1423.64 1919.76C1472.23 1822.84 1452.56 1642.84 1436.65 1564.96 1420.75 1589.48 1388.06 1657.55 1384.59 1733.7 1381.12 1809.86 1409.18 1889.47 1423.64 1919.76ZM2586.39 2201C2714.82 2069.46 2849.6 2035.14 2903.11 2036.58 2894.43 2105.81 2890.1 2162.06 2798.98 2205.33 2726.1 2239.94 2625.44 2218.31 2586.39 2201ZM1661.49 1613.76C1648.03 1714.73 1639.07 2054.06 1636.23 2213.98 1622.35 2217.44 1598.63 2189.46 1588.51 2175.04 1595.37 2092.94 1639.51 1770.28 1661.49 1613.76 1661.74 1611.83 1662 1609.98 1662.26 1608.23 1662.01 1610.05 1661.75 1611.89 1661.49 1613.76Z"></path>
  <path fill="#032068" d="M2668.83 2291.86C2429.33 2236.48 2204.59 1994.76 2122.16 1880.82 2162.65 1919.76 2271.41 2018.41 2382.48 2101.48 2493.55 2184.56 2616.76 2213.98 2664.49 2218.31L2668.83 2291.86ZM2473.59 1712.07C2480.53 1698.22 2476.48 1657.26 2473.59 1638.51 2516.97 1772.65 2621.1 1794.28 2621.1 1811.59 2621.1 1828.89 2512.64 1763.99 2451.89 1742.36 2361.65 1700.82 2252.32 1655.82 2208.93 1638.51 2278.35 1634.19 2464.91 1729.38 2473.59 1712.07Z"></path>
  <path fill="#fff" d="M295.428 2029.25C219.244 2176.37 344.505 2445.49 423.416 2573.46C428.198 2581.22 436.695 2585.84 445.807 2585.84H566.747C582.976 2585.84 595.424 2571.19 592.932 2555.15C515.009 2053.65 322.045 1986 295.428 2029.25Z"></path>
  <path fill="#032068" fill-rule="evenodd" d="M303.156 2033.69C267.017 2103.87 278.251 2204.7 309.759 2305.89C341.138 2406.67 391.815 2505.26 430.991 2568.79C434.11 2573.85 439.699 2576.94 445.807 2576.94H566.747C577.467 2576.94 585.798 2567.21 584.137 2556.52C545.311 2306.64 477.99 2166.09 418.079 2093.59C388.093 2057.3 360.297 2038.45 339.235 2031.05C317.634 2023.47 306.542 2028.56 303.156 2033.69ZM431.801 2082.25C494.507 2158.13 562.63 2302.16 601.726 2553.78C605.049 2575.17 588.485 2594.74 566.747 2594.74H445.807C433.69 2594.74 422.286 2588.59 415.839 2578.13C376.105 2513.7 324.696 2413.74 292.763 2311.18C261.009 2209.2 247.691 2102.08 287.524 2025.16L287.676 2024.87L287.848 2024.59C297.954 2008.17 320.958 2005.77 345.133 2014.26C370.172 2023.05 400.478 2044.34 431.801 2082.25Z" clip-rule="evenodd"></path>
  <path fill="#032068" d="M524.367 1745.22C352.321 1845.33 431.428 2319.52 497.106 2563.03C500.222 2574.58 510.718 2582.44 522.683 2582.44H612.649C625.498 2582.44 636.556 2573.21 638.815 2560.56C723.83 2084.55 654.009 1701.56 528.274 1743.45C526.94 1743.89 525.583 1744.52 524.367 1745.22Z"></path>
  <path fill="#fff" d="M940.253 2059.8C759.742 2072.51 614.744 2373.89 554.304 2551.5C548.52 2568.49 561.339 2585.84 579.293 2585.84H676.816C682.593 2585.84 688.195 2584.01 692.761 2580.47C906.13 2415.1 1051.03 2059.8 940.253 2059.8Z"></path>
  <path fill="#032068" fill-rule="evenodd" d="M940.555 2068.7C897.97 2071.78 856.875 2091.89 817.946 2123.89 778.923 2155.96 742.544 2199.62 709.648 2248.76 643.85 2347.04 592.794 2466.02 562.73 2554.36 558.977 2565.39 567.23 2576.94 579.293 2576.94H676.816C680.708 2576.94 684.372 2575.71 687.309 2573.43 792.572 2491.85 881.334 2362.99 929.94 2254.48 954.284 2200.14 968.151 2151.78 969.429 2117.57 970.07 2100.38 967.483 2087.94 962.611 2080.08 958.188 2072.94 951.413 2068.77 940.555 2068.7ZM946.185 2261.76C896.693 2372.24 806.319 2503.72 698.214 2587.5 692.018 2592.3 684.479 2594.74 676.816 2594.74H579.293C555.448 2594.74 538.063 2571.59 545.878 2548.63 576.254 2459.37 627.917 2338.85 694.856 2238.86 728.328 2188.86 765.821 2143.69 806.643 2110.14 847.46 2076.58 892.072 2054.27 939.627 2050.92L939.94 2050.9H940.253C956.913 2050.9 969.758 2057.82 977.74 2070.7 985.314 2082.92 987.915 2099.52 987.217 2118.23 985.814 2155.8 970.891 2206.61 946.185 2261.76ZM357.201 2099.08C378.865 2132.56 403.133 2187.83 426.839 2250.08 442.237 2290.51 457.5 2334.16 471.764 2377.18L493.978 2308.21 510.922 2313.67 481.194 2405.96C503.265 2474.13 522.309 2538.55 534.782 2583.46L517.631 2588.22C511.843 2567.38 504.626 2542.3 496.341 2514.57L437.039 2481.62 445.684 2466.06 488.96 2490.11C481.106 2464.32 472.494 2436.82 463.375 2408.71 447.315 2359.22 429.7 2307.92 411.892 2260.86L327.384 2241.56 331.347 2224.21 404.204 2240.85C382.535 2185.3 361.071 2137.83 342.256 2108.75L357.201 2099.08Z" clip-rule="evenodd"></path>
  <path fill="#fff" fill-rule="evenodd" d="M556.54 1967.13C553.474 1900.58 549.733 1848.5 545.137 1823.98L527.641 1827.26C532.499 1853.17 536.552 1913.72 539.823 1992.29C541.673 2036.74 543.266 2086.7 544.627 2139L485.095 2077.37L472.293 2089.74L545.287 2165.3C546.557 2217.71 547.604 2271.87 548.45 2324.66C550.006 2421.65 550.887 2514.02 551.246 2582.49L569.046 2582.4C568.691 2514.6 567.824 2423.42 566.298 2327.5L624.876 2251.91L610.805 2241.01L565.829 2299.04C565.042 2253.15 564.104 2206.6 562.998 2161.39C561.547 2102.06 559.807 2045.01 557.742 1994.78L607.929 1929.47L593.814 1918.62L556.54 1967.13Z" clip-rule="evenodd"></path>
  <path fill="#032068" fill-rule="evenodd" d="M832.983 2217.54C867.531 2174.16 900.44 2138.78 928.594 2117.85L917.973 2103.56C884.729 2128.28 846.472 2170.84 807.644 2220.99C789.453 2244.49 771.044 2269.77 752.86 2295.87V2246.46H735.059V2321.78C711.053 2357.18 687.685 2393.5 666.004 2428.42C629.697 2486.91 598.087 2541.55 576.102 2581.55L591.702 2590.13C613.077 2551.23 643.674 2498.3 678.867 2441.46L761.417 2431.78L759.344 2414.1L690.925 2422.12C710.147 2391.51 730.51 2360.14 751.321 2329.52C773.69 2296.6 796.554 2264.59 819.055 2235.34H899.527V2217.54H832.983Z" clip-rule="evenodd"></path>
</svg>
