<svg xmlns="http://www.w3.org/2000/svg" width="3000" height="3000" fill="none" viewBox="0 0 3000 3000" id="business-idea">
  <path fill="#E7E8FF" d="M825.739 904.802C813.385 974.226 689.591 1011.72 629.238 1021.79C612.224 1028.36 572.61 1035.71 550.264 1012.59C522.331 983.694 645.633 878.164 722.91 805.979C800.187 733.793 841.182 818.021 825.739 904.802Z"></path>
  <path fill="#E7E8FF" d="M104.83 1880.39C19.3981 2283.99 275.11 2628.55 469.492 2802.11C522.71 2849.63 593.133 2870.69 664.462 2870.69H2437.33C2580.05 2870.69 2675.19 2745.61 2601.84 2623.11C2509.2 2468.38 2906.25 2008.6 2906.25 1805.24C2906.25 1601.87 2509.2 1464.82 2341.55 1093.46C2173.91 722.101 2112.15 536.421 1512.16 439.16C912.168 341.898 1216.57 797.257 929.815 1031.57C643.055 1265.88 228.357 1296.83 104.83 1880.39Z"></path>
  <path fill="#fff" d="M641.612 2870.69H1066.07C1184.22 2827.41 1341.76 2775.48 1302.37 2675.95 1262.99 2576.41 1066.07 2710.57 1013.56 2615.36 961.053 2520.16 1385.51 2507.17 1341.76 2386 1298 2264.83 1031.07 2420.62 1066.07 2303.78 1101.08 2186.93 1398.64 2230.21 1385.51 2109.04 1372.39 1987.87 1149.22 2186.93 1122.96 2048.45 1096.71 1909.97 1337.38 1663.3 1149.22 1620.03 961.053 1576.75 1013.56 2026.81 947.925 2048.45 882.286 2070.09 821.024 1836.4 729.13 1940.26 637.236 2044.12 794.769 2277.81 729.13 2386 663.492 2494.19 571.598 2091.73 466.576 2277.81 382.559 2426.68 548.26 2735.09 641.612 2870.69ZM1956.13 1996.64C1939.16 2410.92 2069.53 2721.57 2149.01 2844.67 2156.25 2855.88 2168.8 2862.16 2182.18 2862.16H2208.03C2230.89 2862.16 2249.42 2843.36 2249.05 2820.61 2240.15 2265.39 2100.8 2035.74 2002.42 1968.71 1981.4 1954.39 1957.17 1971.32 1956.13 1996.64Z"></path>
  <path fill="#032068" fill-rule="evenodd" d="M1976.4 1975C1970.1 1979.01 1965.11 1986.92 1964.69 1996.99C1947.8 2409.45 2077.66 2718.38 2156.22 2840.06C2161.76 2848.63 2171.47 2853.63 2182.18 2853.63H2208.03C2226.09 2853.63 2240.77 2838.75 2240.48 2820.75C2236.04 2543.78 2199.06 2348.53 2151.21 2214.44C2103.31 2080.22 2044.74 2007.88 1997.58 1975.75C1990.02 1970.6 1982.43 1971.16 1976.4 1975ZM1967.17 1960.62C1978.76 1953.25 1993.8 1952.5 2007.26 1961.67C2058.48 1996.57 2118.77 2072.57 2167.37 2208.73C2216.01 2345.03 2253.16 2542.22 2257.63 2820.48C2258.07 2847.98 2235.69 2870.69 2208.03 2870.69H2182.18C2166.12 2870.69 2150.74 2863.13 2141.8 2849.28C2061.4 2724.77 1930.52 2412.39 1947.57 1996.3C1948.19 1981.04 1955.83 1967.83 1967.17 1960.62Z" clip-rule="evenodd"></path>
  <path fill="#032068" d="M2549.49 2215.87C2326.87 2366.34 2222.43 2652.34 2189.78 2819.55C2185.02 2843.92 2204.28 2865.68 2229.23 2865.68H2262.45C2272.38 2865.68 2282.01 2862.15 2289.37 2855.53C2480.51 2683.47 2571.3 2415.84 2603.2 2251.93C2609.41 2220.01 2576.51 2197.6 2549.49 2215.87Z"></path>
  <path fill="#032068" fill-rule="evenodd" d="M2027.19 2058.54C2050.3 2128.64 2071.2 2197.39 2090 2263.53C2105.23 2317.09 2119.07 2368.95 2131.59 2418.44L2156.47 2357.89L2172.33 2364.35L2138.6 2446.46C2160.59 2535.38 2178.17 2615.95 2191.65 2684.09C2207.26 2762.96 2217.4 2825.25 2222.53 2864.59L2205.53 2866.79C2200.54 2828.57 2190.73 2768.09 2175.61 2691.34L2100.07 2650.91L2108.19 2635.88L2171.29 2669.65C2158.22 2604.96 2141.63 2529.95 2121.28 2447.85C2107.45 2392.06 2091.89 2333 2074.5 2271.69L1997.31 2231.05L2005.32 2215.97L2068.01 2248.97C2050.71 2188.97 2031.7 2126.96 2010.9 2063.86L2027.19 2058.54Z" clip-rule="evenodd"></path>
  <path fill="#fff" fill-rule="evenodd" d="M2484.8 2399.6C2508.01 2362.26 2530.29 2329.11 2550.54 2302.79L2536.93 2292.42C2512.79 2323.79 2486.07 2364.34 2458.54 2409.63C2432.71 2452.14 2406.09 2498.97 2380.14 2546.54L2375.02 2476.93L2357.93 2478.18L2365 2574.51C2334.68 2630.97 2305.65 2687.55 2280.31 2738.4C2256.42 2786.35 2235.79 2829.22 2220.44 2862.09L2235.98 2869.28C2250.96 2837.22 2271 2795.54 2294.23 2748.87L2369.7 2718.34L2363.25 2702.53L2305.78 2725.78C2328.88 2679.82 2354.6 2630.01 2381.29 2580.38C2410.92 2525.27 2441.74 2470.41 2471.49 2421.29L2528.44 2404.58L2523.59 2388.22L2484.8 2399.6Z" clip-rule="evenodd"></path>
  <path fill="#032068" d="M1958.08 2564.54L1993.26 2867.99H1034.54L1065.33 2564.54H1958.08Z"></path>
  <path fill="#EFCB96" fill-rule="evenodd" d="M1399.65 1217.49C1388.25 1205.4 1355.69 1162.24 1357.57 1087.21C1348.29 1085.9 1331.08 1073.71 1336.48 1035.38C1341.88 997.063 1363.48 993.296 1373.61 996.203C1400.3 912.773 1456.76 861.357 1545.76 873.897C1638.6 886.976 1688.09 932.703 1687.33 1040.4C1697.06 1043.25 1715.41 1056.79 1710.99 1088.15C1706.58 1119.5 1686.53 1130.59 1677.06 1132.22C1665.77 1184.66 1646.6 1220.11 1624.41 1237.67L1637.03 1363.95L1566.67 1451.91L1403.95 1434.32L1399.55 1346.36L1412.57 1233.55C1409.08 1229.63 1406.18 1225.87 1403.57 1222.49C1402.2 1220.7 1400.91 1219.03 1399.65 1217.49Z" clip-rule="evenodd"></path>
  <path fill="#032068" d="M1357.4 918.42C1344.55 959.244 1343.29 1018.58 1357.64 1042.81L1402.91 973.684C1412.38 982.124 1461.2 990.778 1480.07 993.437C1553.72 1000.26 1612.7 966.229 1632.98 948.361C1632.05 980.206 1667.63 1070.19 1681.19 1110.59C1709.32 1079.03 1737.3 989.704 1728.67 899.664C1720.03 809.624 1663.16 797.171 1627.1 800.973C1541.72 713.445 1431.63 706.816 1368.94 773.485C1318.79 826.82 1334.55 891.513 1357.4 918.42Z"></path>
  <path fill="#EFCB96" d="M860.918 1242.81C851.262 1255.88 848.385 1288.27 848.154 1302.84L803.772 1345.83 736.451 1308.74C735.196 1276.24 692.203 1231.86 704.086 1190.12 713.592 1156.73 767.337 1131.22 787.347 1135.48L784.763 1044.64C784.402 1031.93 794.113 1021.19 806.799 1020.26 820.014 1019.3 831.462 1029.34 832.246 1042.56L839.722 1168.81C837.71 1171.53 843.774 1177.1 870.478 1161.47 903.857 1141.92 896.465 1158.68 901.619 1168.81 906.773 1178.93 872.988 1226.46 860.918 1242.81ZM1917.23 2657.54C1940.11 2635.93 1950.86 2616.76 1953.37 2609.88 1981.63 2627.38 2047.12 2639.46 2067.39 2670.09 2092.73 2708.38 2040.51 2822.45 2020.73 2833.02 2000.95 2843.58 1926.36 2824.75 1907.37 2807.51 1892.19 2793.72 1905.6 2755.99 1914.84 2740.95 1904.86 2733.24 1876.49 2729.55 1878.14 2710.68 1880.21 2687.09 1888.63 2684.54 1917.23 2657.54Z"></path>
  <path fill="#F4AD5E" fill-rule="evenodd" d="M1188.78 1358.6C1151.89 1373.41 1115.43 1392.15 1083.65 1415.26C1019.58 1465.4 985.788 1503.88 961.989 1530.98C947.809 1547.13 937.178 1559.23 925.807 1567.35C911.701 1577.43 912.569 1523.81 913.591 1460.7C914.776 1387.54 916.167 1301.61 894.689 1287.3C854.681 1260.62 672.421 1270.65 672.421 1322.86C672.421 1341.04 659.956 1409.34 644.481 1494.12C615.519 1652.8 576.016 1869.24 587.959 1922.98C614.632 2043.01 747.992 2149.7 925.807 2065.23C955.404 2044.99 982.27 2025.03 1006.75 2005.24C998.442 2274.06 1006.14 2538.52 1021.35 2568.94C1065.33 2656.9 1351.18 2656.9 1535.89 2656.9C1683.13 2656.9 1828.32 2648.68 1916.74 2625.24C1947.83 2661.41 2064.58 2700.27 2102.57 2696.48C2146.55 2692.08 2318.06 2234.71 2322.46 2129.16C2326.86 2023.62 2190.53 1557.45 1961.84 1416.72C1961.51 1416.54 1961.18 1416.35 1960.84 1416.17L1960.37 1412.33C1849.73 1333.05 1730.24 1309.54 1659.02 1311.18C1659.02 1340.5 1631.76 1399.13 1522.69 1399.13C1413.63 1399.13 1389.29 1340.5 1386.36 1311.18C1348.69 1312.22 1270.25 1323.88 1188.78 1358.6Z" clip-rule="evenodd"></path>
  <path fill="#032068" d="M2282.88 2296.28C2212.52 2159.07 2247.7 1969.38 2274.09 1891.68 2287.28 1941.53 2315.43 2053.52 2322.46 2102.78 2329.5 2152.03 2299.01 2252.3 2282.88 2296.28ZM1961.84 2181.94C1958.33 2115.09 1916.4 1954.72 1895.88 1882.89 1926.66 1962.05 2005.82 2093.98 2005.82 2181.94 2005.82 2252.3 1941.32 2492.71 1909.07 2604.12 1928.13 2491.25 1965.36 2248.78 1961.84 2181.94ZM1512.87 1272.5C1456.58 1272.5 1421.98 1244.65 1411.72 1232.92L1407.32 1276.9C1505.83 1333.19 1594.96 1300.36 1627.21 1276.9L1622.81 1232.92C1609.62 1244.65 1569.16 1272.5 1512.87 1272.5ZM921.361 1718.5 912.47 1527.34 921.361 1571.8 1001.38 1496.23C962.258 1549.57 931.733 1666.63 921.361 1718.5ZM1114.77 1864.24 1008.08 1993.16 1003.64 2242.1C1021.42 2057.17 1092.54 1935.37 1114.77 1864.24Z"></path>
  <path fill="#fff" d="M1988.98 727.525C1988.98 707.295 2005.46 690.895 2025.8 690.895H2719.81C2740.15 690.895 2756.63 707.295 2756.63 727.525V1101.93C2756.63 1122.16 2740.15 1138.56 2719.81 1138.56H2025.8C2005.46 1138.56 1988.98 1122.16 1988.98 1101.93V727.525Z"></path>
  <path fill="#032068" fill-rule="evenodd" d="M1981.61 727.525C1981.61 703.249 2001.4 683.569 2025.8 683.569H2719.81C2744.22 683.569 2764 703.249 2764 727.525V1101.93C2764 1126.21 2744.22 1145.89 2719.81 1145.89H2025.8C2001.4 1145.89 1981.61 1126.21 1981.61 1101.93V727.525ZM2025.8 698.221C2009.53 698.221 1996.34 711.341 1996.34 727.525V1101.93C1996.34 1118.11 2009.53 1131.23 2025.8 1131.23H2719.81C2736.08 1131.23 2749.27 1118.11 2749.27 1101.93V727.525C2749.27 711.341 2736.08 698.221 2719.81 698.221H2025.8Z" clip-rule="evenodd"></path>
  <path fill="#032068" d="M2524.88 896.959L2338.39 1054.29V1099.3C2338.39 1119.53 2354.88 1135.93 2375.21 1135.93H2719.81C2740.15 1135.93 2756.63 1119.53 2756.63 1099.3V1037.14L2571.08 895.81C2557.32 885.334 2538.09 885.812 2524.88 896.959Z"></path>
  <path fill="#F4AD5E" d="M2427.58 830.056C2427.58 857.465 2405.25 879.684 2377.7 879.684C2350.14 879.684 2327.81 857.465 2327.81 830.056C2327.81 802.647 2350.14 780.428 2377.7 780.428C2405.25 780.428 2427.58 802.647 2427.58 830.056Z"></path>
  <path fill="#fff" d="M2178.02 896.794L1988.98 1054.29L1988.98 1101.93C1988.98 1122.16 2005.46 1138.56 2025.8 1138.56H2539.57L2224.19 895.901C2210.5 885.369 2191.29 885.74 2178.02 896.794Z"></path>
  <path fill="#032068" fill-rule="evenodd" d="M2219.69 901.696C2208.74 893.27 2193.36 893.568 2182.75 902.41L1996.34 1057.71L1996.34 1101.93C1996.34 1118.11 2009.53 1131.23 2025.8 1131.23H2518.01L2219.69 901.696ZM2173.29 891.177C2189.21 877.913 2212.27 877.468 2228.7 890.106L2561.13 1145.89H2025.8C2001.4 1145.89 1981.61 1126.21 1981.61 1101.93L1981.61 1050.87L2173.29 891.177Z" clip-rule="evenodd"></path>
  <path fill="#F4AD5E" d="M830.987 851.523C830.987 886.43 802.802 914.728 768.034 914.728C733.266 914.728 705.081 886.43 705.081 851.523C705.081 816.615 733.266 788.317 768.034 788.317C802.802 788.317 830.987 816.615 830.987 851.523Z"></path>
  <path fill="#fff" d="M1022.58 486.032C1022.58 637.803 908.616 760.838 768.031 760.838C627.447 760.838 513.48 637.803 513.48 486.032C513.48 334.261 627.447 211.226 768.031 211.226C908.616 211.226 1022.58 334.261 1022.58 486.032Z"></path>
  <path fill="#032068" fill-rule="evenodd" d="M768.031 218.983C632.232 218.983 521.206 338.005 521.206 486.032C521.206 634.059 632.232 753.081 768.031 753.081C903.831 753.081 1014.86 634.059 1014.86 486.032C1014.86 338.005 903.831 218.983 768.031 218.983ZM505.755 486.032C505.755 330.517 622.662 203.47 768.031 203.47C913.401 203.47 1030.31 330.517 1030.31 486.032C1030.31 641.547 913.401 768.594 768.031 768.594C622.662 768.594 505.755 641.547 505.755 486.032Z" clip-rule="evenodd"></path>
  <path fill="#032068" d="M705.39 876.256H830.68C852.014 876.256 869.308 858.893 869.308 837.474V736.105H666.762V837.474C666.762 858.893 684.056 876.256 705.39 876.256Z"></path>
  <path fill="#F4AD5E" fill-rule="evenodd" d="M692.093 441.45C696.416 438.619 701.675 437.056 707.818 437.056C719.548 437.056 727.833 441.473 732.576 449.409C736.82 456.512 737.44 465.261 737.44 472.293C737.44 484.243 732.412 495.529 723.616 504.715C734.751 508.601 750 511.253 770.771 511.253C791.543 511.253 806.792 508.601 817.927 504.715C809.131 495.529 804.102 484.243 804.102 472.293C804.102 465.261 804.722 456.512 808.967 449.409C813.71 441.473 821.995 437.056 833.725 437.056C839.868 437.056 845.127 438.619 849.449 441.45C853.724 444.249 856.673 448.015 858.686 451.832C862.606 459.266 863.347 467.585 863.347 472.293C863.347 482.119 859.473 495.146 846.999 506.001C853.501 508.714 861.141 510.6 869.9 511.276C882.193 512.226 893.672 508.481 903.236 503.105C912.839 497.707 920.035 490.924 923.544 486.618L935.503 496.441C930.801 502.21 922.121 510.268 910.785 516.64C899.41 523.035 884.887 527.992 868.715 526.743C854.655 525.658 842.143 521.679 831.963 515.7C817.781 522.469 797.992 526.766 770.771 526.766C743.551 526.766 723.762 522.469 709.58 515.7C699.399 521.679 686.888 525.658 672.828 526.743C656.656 527.992 642.133 523.035 630.758 516.64C619.421 510.268 610.742 502.21 606.04 496.441L617.999 486.618C621.508 490.924 628.704 497.707 638.306 503.105C647.87 508.481 659.35 512.226 671.643 511.276C680.402 510.6 688.041 508.714 694.543 506.001C682.07 495.146 678.196 482.119 678.196 472.293C678.196 467.585 678.937 459.266 682.857 451.832C684.869 448.015 687.819 444.249 692.093 441.45ZM708.76 497.433C717.534 489.988 721.989 480.682 721.989 472.293C721.989 465.584 721.241 460.593 719.327 457.391C717.911 455.022 715.247 452.569 707.818 452.569C704.381 452.569 702.113 453.41 700.534 454.444C698.906 455.509 697.579 457.067 696.512 459.09C694.274 463.335 693.647 468.756 693.647 472.293C693.647 478.357 696.129 487.69 706.402 495.712C707.143 496.29 707.928 496.865 708.76 497.433ZM832.783 497.433C833.614 496.865 834.399 496.29 835.14 495.712C845.413 487.69 847.896 478.357 847.896 472.293C847.896 468.756 847.269 463.335 845.03 459.09C843.964 457.067 842.636 455.509 841.009 454.444C839.43 453.41 837.162 452.569 833.725 452.569C826.295 452.569 823.632 455.022 822.216 457.391C820.302 460.593 819.553 465.584 819.553 472.293C819.553 480.682 824.009 489.988 832.783 497.433Z" clip-rule="evenodd"></path>
  <path fill="#F4AD5E" d="M2144.31 337.33 2110.58 382.564C2108.53 385.316 2105.18 386.64 2101.9 385.997L2060.21 377.818C2051.24 376.058 2045.83 387.861 2052.75 394.087L2085.52 423.554C2087.91 425.705 2089.04 429.019 2088.49 432.27L2080.27 480.858C2078.73 489.992 2089.47 495.646 2095.55 488.899L2129.2 451.56C2131.18 449.368 2134.05 448.308 2136.9 448.715L2175.85 454.269C2184.62 455.521 2189.59 444.07 2182.92 437.974L2153.95 411.505C2151.63 409.379 2150.52 406.146 2151.02 402.956L2160.15 344.59C2161.64 335.044 2149.99 329.706 2144.31 337.33ZM338.911 1085.65 300.361 1088.9C298.015 1089.1 295.785 1087.98 294.579 1086L279.237 1060.76C275.936 1055.34 267.46 1057.93 267.554 1064.34L267.998 1094.69C268.03 1096.9 266.888 1099 264.992 1100.2L236.661 1118.14C231.335 1121.51 233.5 1129.63 239.74 1129.68L274.277 1130C276.305 1130.02 278.176 1131.01 279.303 1132.67L294.69 1155.29C298.156 1160.39 306.248 1157.72 306.206 1151.5L306.024 1124.48C306.009 1122.31 307.12 1120.26 308.961 1119.06L342.647 1097.14C348.156 1093.55 345.409 1085.11 338.911 1085.65ZM1295.6 139.321 1279.46 159.224C1278.48 160.435 1276.88 161.017 1275.31 160.734L1255.38 157.135C1251.09 156.361 1248.5 161.555 1251.81 164.294L1267.48 177.259C1268.62 178.206 1269.16 179.664 1268.9 181.094L1264.97 202.473C1264.23 206.492 1269.37 208.98 1272.28 206.011L1288.37 189.582C1289.32 188.617 1290.69 188.151 1292.05 188.33L1310.68 190.774C1314.88 191.325 1317.25 186.287 1314.06 183.604L1300.21 171.958C1299.1 171.023 1298.56 169.6 1298.8 168.196L1303.17 142.515C1303.89 138.315 1298.32 135.966 1295.6 139.321Z"></path>
</svg>
